<svg xmlns="http://www.w3.org/2000/svg" viewBox="0 0 512 512" role="img" aria-label="Whoopee cushion">
  <defs>
    <radialGradient id="cushionGrad" cx="40%" cy="30%" r="70%">
      <stop offset="0%" stop-color="#ff8a7a"/>
      <stop offset="55%" stop-color="#f04f4f"/>
      <stop offset="100%" stop-color="#c8323e"/>
    </radialGradient>
    <linearGradient id="shine" x1="0%" y1="0%" x2="100%" y2="100%">
      <stop offset="0%" stop-color="#fff6f6" stop-opacity="0.9"/>
      <stop offset="100%" stop-color="#fff6f6" stop-opacity="0"/>
    </linearGradient>
  </defs>
  <rect width="512" height="512" rx="256" fill="#fbe3e7"/>
  <g transform="translate(0 20)">
    <ellipse cx="256" cy="260" rx="190" ry="160" fill="url(#cushionGrad)"/>
    <ellipse cx="256" cy="260" rx="150" ry="125" fill="#e63b3b" opacity="0.4"/>
    <ellipse cx="256" cy="250" rx="120" ry="95" fill="#d93636" opacity="0.35"/>
    <path d="M154 190c40-40 90-55 140-55 45 0 86 12 122 34" fill="none" stroke="#ffb3a7" stroke-width="18" stroke-linecap="round" opacity="0.7"/>
    <ellipse cx="318" cy="180" rx="70" ry="40" fill="url(#shine)"/>
    <circle cx="256" cy="320" r="20" fill="#b22630"/>
    <path d="M236 328c12 18 26 28 40 30" fill="none" stroke="#901f28" stroke-width="8" stroke-linecap="round"/>
    <path d="M294 296c18-6 38-6 58 0" fill="none" stroke="#d94d4d" stroke-width="10" stroke-linecap="round"/>
  </g>
</svg>
